<svg width="34" height="34" viewBox="0 0 34 34" fill="none" xmlns="http://www.w3.org/2000/svg">
<path d="M12.875 33.708L12.125 28.5C11.7083 28.3333 11.236 28.104 10.708 27.812C10.1807 27.5207 9.72234 27.2223 9.33301 26.917L4.41701 29.042L0.333008 21.667L4.54201 18.458C4.51401 18.236 4.49301 17.986 4.47901 17.708C4.46501 17.4307 4.45801 17.167 4.45801 16.917C4.45801 16.6943 4.46501 16.4513 4.47901 16.188C4.49301 15.924 4.51401 15.653 4.54201 15.375L0.333008 12.25L4.41701 4.95801L9.20801 7.04201C9.62467 6.73601 10.097 6.43034 10.625 6.12501C11.153 5.81967 11.653 5.58367 12.125 5.41701L12.875 0.208008H21.125L21.875 5.41701C22.347 5.61101 22.84 5.85401 23.354 6.14601C23.868 6.43734 24.3193 6.74967 24.708 7.08301L29.625 4.95801L33.708 12.25L29.333 15.458C29.389 15.708 29.424 15.972 29.438 16.25C29.4513 16.528 29.458 16.778 29.458 17C29.458 17.1947 29.4443 17.4307 29.417 17.708C29.389 17.986 29.375 18.264 29.375 18.542L33.625 21.667L29.542 29.042L24.583 26.875C24.1943 27.2083 23.757 27.5207 23.271 27.812C22.785 28.104 22.3337 28.3193 21.917 28.458L21.125 33.708H12.875ZM16.917 22.5C18.4443 22.5 19.7567 21.9583 20.854 20.875C21.9513 19.7917 22.5 18.486 22.5 16.958C22.5 15.4027 21.9513 14.0833 20.854 13C19.7567 11.9167 18.4443 11.375 16.917 11.375C15.361 11.375 14.0413 11.9167 12.958 13C11.8747 14.0833 11.333 15.4027 11.333 16.958C11.333 18.486 11.8747 19.7917 12.958 20.875C14.0413 21.9583 15.361 22.5 16.917 22.5ZM16.875 19.708C16.125 19.708 15.486 19.4373 14.958 18.896C14.4307 18.354 14.167 17.708 14.167 16.958C14.167 16.1807 14.4307 15.521 14.958 14.979C15.486 14.4377 16.139 14.167 16.917 14.167C17.667 14.167 18.3127 14.4377 18.854 14.979C19.396 15.521 19.667 16.1807 19.667 16.958C19.667 17.708 19.396 18.354 18.854 18.896C18.3127 19.4373 17.653 19.708 16.875 19.708ZM15.25 30.917H18.708L19.333 26.292C20.2223 26.0693 21.0487 25.736 21.812 25.292C22.576 24.8473 23.3193 24.2777 24.042 23.583L28.25 25.417L29.958 22.5L26.208 19.708C26.3473 19.236 26.4517 18.7707 26.521 18.312C26.5903 17.854 26.625 17.4027 26.625 16.958C26.625 16.458 26.5903 15.9997 26.521 15.583C26.4517 15.1663 26.3613 14.708 26.25 14.208L29.958 11.417L28.333 8.54201L24.042 10.333C23.4587 9.66634 22.7433 9.08301 21.896 8.58301C21.0487 8.08301 20.1807 7.74967 19.292 7.58301L18.792 3.04201H15.208L14.708 7.54201C13.736 7.76401 12.854 8.10401 12.062 8.56201C11.2707 9.02067 10.5417 9.59734 9.87501 10.292L5.66701 8.54201L3.95801 11.417L7.66701 14.208C7.55567 14.6807 7.46534 15.139 7.39601 15.583C7.32667 16.0277 7.29201 16.486 7.29201 16.958C7.29201 17.3747 7.32667 17.8053 7.39601 18.25C7.46534 18.6947 7.55567 19.1807 7.66701 19.708L3.95801 22.5L5.66701 25.417L9.87501 23.625C10.625 24.347 11.389 24.9233 12.167 25.354C12.9443 25.7847 13.7913 26.111 14.708 26.333L15.25 30.917Z" fill="#2077FF"/>
</svg>
