<svg width="28" height="32" viewBox="0 0 28 32" fill="none" xmlns="http://www.w3.org/2000/svg">
<path d="M5.66699 31.042C4.75033 31.042 3.96533 30.7223 3.31199 30.083C2.65933 29.4443 2.33299 28.6527 2.33299 27.708V5.29201H0.666992V2.45801H8.70799V0.958008H19.375V2.45801H27.375V5.29201H25.708V27.708C25.708 28.6247 25.3817 29.4093 24.729 30.062C24.0763 30.7153 23.2917 31.042 22.375 31.042H5.66699ZM22.875 5.29201H5.16699V27.708C5.16699 27.8747 5.21533 28.0067 5.31199 28.104C5.40933 28.2013 5.52766 28.25 5.66699 28.25H22.375C22.5137 28.25 22.6317 28.1943 22.729 28.083C22.8263 27.9723 22.875 27.8473 22.875 27.708V5.29201ZM9.24999 24.75H12.042V8.70801H9.24999V24.75ZM16.042 24.75H18.833V8.70801H16.042V24.75ZM5.16699 5.29201V28.25V27.708V5.29201Z" fill="#910D0D"/>
</svg>
